<?xml version="1.0" encoding="utf-8"?>
<!-- Generator: Adobe Illustrator 24.0.0, SVG Export Plug-In . SVG Version: 6.00 Build 0)  -->
<svg version="1.1" id="Layer_1" xmlns="http://www.w3.org/2000/svg" xmlns:xlink="http://www.w3.org/1999/xlink" x="0px" y="0px"
	 viewBox="0 0 177.8 163.5" style="enable-background:new 0 0 177.8 163.5;" xml:space="preserve">
<style type="text/css">
	.st0{fill:none;stroke:#2F286B;stroke-width:4;stroke-miterlimit:10;}
</style>
<title>quotes_img</title>
<path class="st0" d="M5.2,158.5v-27.8C11,129,16.9,128,22,125.6c18-8.4,27.5-22.8,28.7-42.6c0.2-3.5-0.8-4.4-4.3-4.4
	c-12.8,0-25.6,0-38.4,0H5.2V4.8h74c0.1,0.6,0.2,1.3,0.2,1.9c0,25.6,0.2,51.2-0.1,76.8c-0.4,35.2-27.1,66.9-61.8,73.3
	C13.5,157.5,9.4,157.9,5.2,158.5z"/>
<path class="st0" d="M98.2,158.5v-28.3c3.7-0.8,7.3-1.3,10.7-2.3c20.2-5.9,34.3-24.1,34.9-45.1c0.1-3.1-1-4.2-4.1-4.2
	c-12.9,0-25.8,0-38.7,0h-2.9V4.8h73.8c0.1,0.5,0.2,1,0.3,1.6c0,25.5,0.4,51-0.1,76.5c-0.8,37.2-26.5,67-63.2,74.2
	C105.7,157.8,102.1,158,98.2,158.5z"/>
</svg>
