<?xml version="1.0" encoding="utf-8"?>
<!-- Generator: Adobe Illustrator 24.0.0, SVG Export Plug-In . SVG Version: 6.00 Build 0)  -->
<svg version="1.1" id="Layer_1" xmlns="http://www.w3.org/2000/svg" xmlns:xlink="http://www.w3.org/1999/xlink" x="0px" y="0px"
	 viewBox="0 0 512 512" style="enable-background:new 0 0 512 512;" xml:space="preserve">
<style type="text/css">
	.st0{fill:#FF7000;}
</style>
<g>
	<g>
		<path class="st0" d="M256.5,429c-22.9,0-41.5,18.6-41.5,41.5s18.6,41.5,41.5,41.5s41.5-18.6,41.5-41.5S279.4,429,256.5,429z
			 M256.5,491.6c-11.6,0-21.1-9.5-21.1-21.1c0-11.6,9.5-21.1,21.1-21.1c11.6,0,21.1,9.5,21.1,21.1S268.2,491.6,256.5,491.6z"/>
	</g>
</g>
<g>
	<g>
		<path class="st0" d="M256,0C169.2,0,98.5,70.6,98.5,157.5c0,22.9,18.7,41.6,41.6,41.6s41.6-18.7,41.6-41.6
			c0-41,33.3-74.3,74.3-74.3s74.3,33.3,74.3,74.3S297,231.8,256,231.8c-22.9,0-41.6,18.7-41.6,41.6v97c0,22.9,18.7,41.6,41.6,41.6
			s41.6-18.7,41.6-41.6v-61c31.4-8.6,59.7-27,80.5-52.5c22.8-28,35.4-63.3,35.4-99.4C413.5,70.6,342.8,0,256,0z M285.2,291.4
			c-4.7,1-8,5.2-8,10v69c0,11.7-9.5,21.2-21.2,21.2s-21.2-9.5-21.2-21.2v-97c0-11.7,9.5-21.2,21.2-21.2c52.2,0,94.7-42.5,94.7-94.7
			S308.2,62.8,256,62.8s-94.7,42.5-94.7,94.7c0,11.7-9.5,21.2-21.2,21.2s-21.2-9.5-21.2-21.2c0-75.6,61.5-137.1,137.1-137.1
			s137.1,61.5,137.1,137.1C393.1,221.5,347.7,277.8,285.2,291.4z"/>
	</g>
</g>
<g>
	<g>
		<path class="st0" d="M256,299.9c-5.6,0-10.2,4.6-10.2,10.2v59.2c0,5.6,4.6,10.2,10.2,10.2c5.6,0,10.2-4.6,10.2-10.2v-59.2
			C266.2,304.4,261.6,299.9,256,299.9z"/>
	</g>
</g>
<g>
	<g>
		<path class="st0" d="M256,263.1c-5.6,0-10.2,4.6-10.2,10.2v9.2c0,5.6,4.6,10.2,10.2,10.2c5.6,0,10.2-4.6,10.2-10.2v-9.2
			C266.2,267.7,261.6,263.1,256,263.1z"/>
	</g>
</g>
</svg>
